# xmcd
#
# Track frame offsets:
#	150
#	4842
#	21930
#	30821
#	63337
#	81789
#	94424
#	128596
#	154072
#	187726
#	219707
#	225418
#
# Disc length: 3075 seconds
#
# Revision: 1
# Processed by: cddbd v1.5.1PL0 Copyright (c) Steve Scherf et al.
# Submitted via: CDmax 2.0
#
DISCID=880c010c
DTITLE=helicoid 0222mb - flying starlyzer
DYEAR=2004
DGENRE=Blues
TTITLE0=into
TTITLE1=groop nation
TTITLE2=11 months
TTITLE3=new world
TTITLE4=sukikiraisuki
TTITLE5=swan
TTITLE6=black rain
TTITLE7=(it's a) time to know
TTITLE8=miwayama-mayamiwa
TTITLE9=glow in a newlight
TTITLE10=elp#1
TTITLE11=bottakuri (rip-off)
EXTD=
EXTT0=
EXTT1=
EXTT2=
EXTT3=
EXTT4=
EXTT5=
EXTT6=
EXTT7=
EXTT8=
EXTT9=
EXTT10=
EXTT11=
PLAYORDER=
